HIERARCHY
ROOT hip
{
	OFFSET 0.000000 0.000000 0.000000 
	CHANNELS 6 Xposition Yposition Zposition Xrotation Zrotation Yrotation
	JOINT abdomen
	{
		OFFSET 0.000000 3.402643 0.000000 
		CHANNELS 3 Xrotation Zrotation Yrotation
		JOINT chest
		{
			OFFSET 0.000000 8.438565 -0.680529 
			CHANNELS 3 Xrotation Zrotation Yrotation
			JOINT neck
			{
				OFFSET 0.000000 10.207942 -0.272212 
				CHANNELS 3 Xrotation Zrotation Yrotation
				JOINT head
				{
					OFFSET 0.000000 3.130431 0.000000 
					CHANNELS 3 Xrotation Zrotation Yrotation
					End Site
					{
						OFFSET 0.000000 3.130435 0.000000 
					}
				}
			}
			JOINT lCollar
			{
				OFFSET 3.470700 6.669187 -0.816635 
				CHANNELS 3 Yrotation Zrotation Xrotation
				JOINT lShldr
				{
					OFFSET 3.198488 0.000000 0.000000 
					CHANNELS 3 Zrotation Yrotation Xrotation
					JOINT lForeArm
					{
						OFFSET 10.139888 0.000000 0.000000 
						CHANNELS 3 Yrotation Zrotation Xrotation
						JOINT lHand
						{
							OFFSET 8.370511 0.000000 0.000000 
							CHANNELS 3 Zrotation Yrotation Xrotation
							End Site
							{
								OFFSET 4.083176 0.000000 0.000000 
							}
						}
					}
				}
			}
			JOINT rCollar
			{
				OFFSET -3.470700 6.669187 -0.816635 
				CHANNELS 3 Yrotation Zrotation Xrotation
				JOINT rShldr
				{
					OFFSET -3.198488 0.000000 0.000000 
					CHANNELS 3 Zrotation Yrotation Xrotation
					JOINT rForeArm
					{
						OFFSET -10.139888 0.000000 0.000000 
						CHANNELS 3 Yrotation Zrotation Xrotation
						JOINT rHand
						{
							OFFSET -8.370511 0.000000 0.000000 
							CHANNELS 3 Zrotation Yrotation Xrotation
							End Site
							{
								OFFSET -4.083176 0.000000 0.000000 
							}
						}
					}
				}
			}
		}
	}
	JOINT lThigh
	{
		OFFSET 5.308129 -1.633274 1.361059 
		CHANNELS 3 Xrotation Zrotation Yrotation
		JOINT lShin
		{
			OFFSET -2.041588 -20.007561 0.000000 
			CHANNELS 3 Xrotation Zrotation Yrotation
			JOINT lFoot
			{
				OFFSET 0.000000 -19.190928 -1.224953 
				CHANNELS 3 Xrotation Yrotation Zrotation
				End Site
				{
					OFFSET 0.000000 -2.449906 4.627600 
				}
			}
		}
	}
	JOINT rThigh
	{
		OFFSET -5.308129 -1.633274 1.361059 
		CHANNELS 3 Xrotation Zrotation Yrotation
		JOINT rShin
		{
			OFFSET 2.041588 -20.007561 0.000000 
			CHANNELS 3 Xrotation Zrotation Yrotation
			JOINT rFoot
			{
				OFFSET 0.000000 -19.190928 -1.224953 
				CHANNELS 3 Xrotation Yrotation Zrotation
				End Site
				{
					OFFSET 0.000000 -2.449906 4.627600 
				}
			}
		}
	}
}
MOTION
Frames: 8
Frame Time: 0.011111
8.483883 53.903130 16.701620 1.065864 -7.436966 10.165449 24.749546 -12.125790 4.600486 -20.955091 -5.622751 2.476989 -15.544812 -10.796679 -3.818436 4.484121 16.626322 -10.861988 2.424333 -4.683778 1.783845 -55.720776 -33.862427 6.547447 -52.120773 8.154251 9.010509 8.524705 12.647240 -43.655651 -2.738486 -1.140572 2.095526 -20.525780 84.497765 29.458292 86.026131 -1.485492 28.685534 -8.534408 -12.637552 -4.839985 -1.893435 14.479745 -13.373197 13.055204 -5.936626 -2.566554 -18.259930 8.902778 -0.179358 -6.129903 -13.073195 16.932966 16.040176 5.871027 2.984871 -18.198160 -36.985985 -4.689709 
8.535608 53.904633 16.705231 0.969646 -7.554123 10.039067 24.702402 -12.180367 4.503741 -21.072741 -5.589293 2.458285 -15.472148 -10.917793 -3.738681 4.561989 16.508495 -10.718484 2.424333 -4.683778 1.783845 -55.649853 -33.775154 6.360036 -51.868526 8.101939 8.907837 8.524705 12.647240 -43.225964 -2.738486 -1.140572 2.095526 -19.219206 83.791679 30.119617 86.048729 -1.445399 28.776512 -8.534408 -12.637552 -4.048969 -1.864290 14.529824 -13.359950 13.243338 -5.947389 -2.585345 -18.533533 8.900100 -0.124381 -6.052457 -13.014980 16.870621 15.932478 5.883742 2.947536 -17.295835 -37.037205 -4.139235 
8.581319 53.907341 16.720869 0.834589 -7.753161 9.936579 24.624084 -12.120053 4.317046 -21.043459 -5.650596 2.408393 -15.501398 -10.910193 -3.623464 4.677552 16.427628 -10.477944 2.424333 -4.683778 1.783845 -55.437382 -33.532837 6.153700 -51.690826 8.068213 8.835305 8.524705 12.647240 -42.649792 -2.738486 -1.140572 2.095526 -18.918669 83.302917 29.524483 86.060883 -1.431279 28.836260 -8.534408 -12.637552 -3.043110 -1.794474 14.700877 -13.369894 13.407983 -5.936911 -2.608063 -18.694475 8.967475 -0.059439 -5.894530 -12.837426 16.904785 15.827976 5.884685 2.937926 -16.566397 -37.142925 -3.729701 
8.631844 53.903130 16.748236 0.631269 -7.941254 9.864070 24.558573 -12.029816 4.190113 -21.033852 -5.769612 2.362140 -15.558717 -10.873304 -3.500123 4.975325 16.389122 -10.191857 2.424333 -4.683778 1.783845 -55.236996 -33.456417 5.699102 -51.312626 7.985886 8.683353 8.524705 12.647240 -42.600964 -2.738486 -1.140572 2.095526 -18.602936 82.726265 28.927662 86.065666 -1.423380 28.856543 -8.534408 -12.637552 -2.027485 -1.591270 14.872689 -13.282800 13.483098 -5.935994 -2.615062 -18.701704 8.982291 -0.072067 -5.662646 -12.664578 16.926455 15.768962 5.874892 2.931471 -16.318510 -37.163868 -3.573874 
8.686876 53.898315 16.777105 0.495552 -8.024390 9.784354 24.388182 -12.084275 4.102810 -21.033945 -5.828767 2.344375 -15.422829 -10.926797 -3.381988 5.179550 16.422644 -9.914299 2.424333 -4.683778 1.783845 -55.159725 -33.662163 4.866859 -50.632534 7.838937 8.400806 8.524705 12.647240 -43.245495 -2.738486 -1.140572 2.095526 -18.270523 82.042412 28.387491 86.063301 -1.421778 28.836864 -8.534408 -12.637552 -1.109516 -1.414372 14.927739 -13.281187 13.546624 -5.935094 -2.650425 -18.746836 9.022076 -0.034900 -5.505090 -12.623435 16.862421 15.718016 5.874076 2.897798 -15.982536 -37.242031 -3.370871 
8.745518 53.903728 16.808079 0.417855 -7.951878 9.707788 24.230158 -12.303232 3.858235 -20.916250 -5.795602 2.292329 -15.589193 -10.893560 -3.265868 5.596510 16.253561 -9.653502 2.424333 -4.683778 1.783845 -55.060474 -33.702065 4.375891 -50.266716 7.758358 8.261515 8.524705 12.647240 -43.411510 -2.738486 -1.140572 2.095526 -18.777557 81.463379 27.037582 86.055618 -1.439101 28.816233 -8.534408 -12.637552 -0.103657 -1.220490 14.794781 -13.276383 13.558030 -5.934679 -2.631754 -18.836180 9.068551 -0.022399 -5.418984 -12.753028 16.809547 15.718014 5.874078 2.897799 -15.831142 -37.277016 -3.282595 
8.792733 53.909145 16.833641 0.301420 -8.058493 9.615896 24.126076 -12.358721 3.725498 -20.847610 -5.779596 2.255615 -15.843295 -10.651059 -3.200089 6.016388 15.637672 -9.464405 2.424333 -4.683778 1.783845 -54.928478 -33.507847 3.976375 -50.058289 7.712129 8.171056 8.524705 12.647240 -43.655651 -2.738486 -1.140572 2.095526 -19.448128 80.849922 25.540173 86.044456 -1.453978 28.765957 -8.534408 -12.637552 0.863140 -1.044168 14.871842 -13.214191 13.556652 -5.937900 -2.632124 -18.968988 9.074554 0.015595 -5.301847 -12.645832 16.924822 15.755714 5.883545 2.921920 -15.792693 -37.326176 -3.253715 
8.839646 53.909447 16.849277 0.175131 -8.212781 9.545246 24.078671 -12.241452 3.465785 -20.827990 -5.675056 2.172710 -16.186083 -10.591618 -2.965508 6.585194 15.177873 -8.985622 2.424333 -4.683778 1.783845 -54.987251 -33.419460 3.050264 -49.650879 7.616507 8.015307 8.524705 12.647240 -44.475960 -2.738486 -1.140572 2.095526 -20.334993 80.249748 23.720272 86.008286 -1.517609 28.614595 -8.534408 -12.637552 1.029155 -0.897418 14.995991 -13.150982 13.557786 -5.934588 -2.641480 -18.996407 9.165551 0.049281 -5.183591 -12.487548 16.892426 15.776670 5.884063 2.914005 -15.605241 -37.336414 -3.151646 
